<?xml version="1.0" encoding="utf-8"?>
<!-- Generator: Adobe Illustrator 24.3.0, SVG Export Plug-In . SVG Version: 6.00 Build 0)  -->
<svg version="1.1" id="Layer_1" xmlns="http://www.w3.org/2000/svg" xmlns:xlink="http://www.w3.org/1999/xlink" x="0px" y="0px"
	 viewBox="0 0 89 89" style="enable-background:new 0 0 89 89;" xml:space="preserve">
<style type="text/css">
	.st0{fill-rule:evenodd;clip-rule:evenodd;fill:url(#Rectangle_1_);}
	.st1{fill:#FAFAFA;}
</style>
<desc>Created with Sketch.</desc>
<linearGradient id="Rectangle_1_" gradientUnits="userSpaceOnUse" x1="-249.1509" y1="461.1555" x2="-250.1509" y2="461.1555" gradientTransform="matrix(88.8 0 0 -88.8 22213.4004 40995.0117)">
	<stop  offset="0" style="stop-color:#FCDF52"/>
	<stop  offset="1" style="stop-color:#F8CD3F"/>
</linearGradient>
<path id="Rectangle" class="st0" d="M13.6,0h61.6c7.5,0,13.6,6.1,13.6,13.6v61.6c0,7.5-6.1,13.6-13.6,13.6H13.6
	C6.1,88.8,0,82.7,0,75.2V13.6C0,6.1,6.1,0,13.6,0z"/>
<g>
	<path class="st1" d="M49.6,66.8H24.4c-1.7,0-3.2-1.4-3.2-3.2V24.4c0-1.8,1.4-3.2,3.2-3.2H54c1.7,0,3.2,1.4,3.2,3.2c0,1.1,0.9,2,2,2
		s2-0.9,2-2c0-4-3.2-7.2-7.2-7.2H24.4c-4,0-7.2,3.2-7.2,7.2v39.2c0,4,3.2,7.2,7.2,7.2h25.2c1.1,0,2-0.9,2-2S50.7,66.8,49.6,66.8z"/>
	<path class="st1" d="M30.4,33.3c-0.2-1.3-1.4-2.3-2.7-2.1c-1.3,0.2-2.3,1.4-2.1,2.7c0.2,1.3,1.4,2.3,2.7,2.1S30.5,34.6,30.4,33.3z"
		/>
	<path class="st1" d="M27.7,44.8c-1.3,0.2-2.3,1.4-2.1,2.7c0.2,1.3,1.4,2.3,2.7,2.1c1.3-0.2,2.3-1.4,2.1-2.7
		C30.2,45.6,29,44.7,27.7,44.8z"/>
	<path class="st1" d="M30.4,39.7c-0.2-1.3-1.4-2.3-2.7-2.1c-1.3,0.2-2.3,1.4-2.1,2.7c0.2,1.3,1.4,2.3,2.7,2.1
		C29.6,42.2,30.5,41,30.4,39.7z"/>
	<path class="st1" d="M60.4,61.2c5.3-3,8.8-8.7,8.8-15.2c0-9.7-7.9-17.6-17.6-17.6C41.9,28.4,34,36.3,34,46
		c0,9.7,7.9,17.6,17.6,17.6c1.5,0,3-0.2,4.3-0.6l5.5,13c0.4,0.9,1.3,1.5,2.2,1.5c0.3,0,0.6-0.1,0.9-0.2c1.2-0.5,1.8-1.9,1.3-3.1
		L60.4,61.2z M38,46c0-7.5,6.1-13.6,13.6-13.6S65.2,38.5,65.2,46c0,5.6-3.4,10.4-8.3,12.5c-0.1,0-0.2,0-0.3,0.1c0,0-0.1,0-0.1,0.1
		c-1.5,0.6-3.2,0.9-4.9,0.9C44.1,59.6,38,53.5,38,46z"/>
</g>
</svg>
