<?xml version="1.0" encoding="utf-8"?>
<!-- Generator: Adobe Illustrator 24.3.0, SVG Export Plug-In . SVG Version: 6.00 Build 0)  -->
<svg version="1.1" id="Layer_1" xmlns="http://www.w3.org/2000/svg" xmlns:xlink="http://www.w3.org/1999/xlink" x="0px" y="0px"
	 viewBox="0 0 89 89" style="enable-background:new 0 0 89 89;" xml:space="preserve">
<style type="text/css">
	.st0{fill-rule:evenodd;clip-rule:evenodd;fill:url(#Rectangle_1_);}
	.st1{fill-rule:evenodd;clip-rule:evenodd;fill:#FAFAFA;}
</style>
<desc>Created with Sketch.</desc>
<linearGradient id="Rectangle_1_" gradientUnits="userSpaceOnUse" x1="-249.2209" y1="461.1555" x2="-250.0863" y2="461.1555" gradientTransform="matrix(88.8 0 0 -88.8 22213.4004 40995.0117)">
	<stop  offset="0" style="stop-color:#FBDE51"/>
	<stop  offset="1" style="stop-color:#F8CD3F"/>
</linearGradient>
<path id="Rectangle" class="st0" d="M13.6,0h61.6c7.5,0,13.6,6.1,13.6,13.6v61.6c0,7.5-6.1,13.6-13.6,13.6H13.6
	C6.1,88.8,0,82.7,0,75.2V13.6C0,6.1,6.1,0,13.6,0z"/>
<g>
	<path class="st1" d="M58,42.8c0-2.9-0.7-5.8-2.1-8.4c-1.8-3.3-4.6-5.9-7.8-7.5c-0.3-0.7-0.6-1.4-0.9-2.1c-3.1-5.7-9-9.2-15.5-9.2
		c-9.7,0-17.6,7.9-17.6,17.6c0,6.8,3.9,12.9,9.9,15.8c2.5,6.6,8.9,11.3,16.4,11.3C50.1,60.4,58,52.5,58,42.8z M18,33.2
		c0-7.5,6.1-13.6,13.6-13.6c4.4,0,8.6,2.2,11.1,5.7c-0.8-0.1-1.5-0.2-2.3-0.2c-9.7,0-17.6,7.9-17.6,17.6c0,0.3,0,0.5,0,0.8
		C19.8,41.1,18,37.3,18,33.2z M40.4,56.4c-6,0-11.1-3.9-12.9-9.3c0,0,0,0,0-0.1c-0.4-1.3-0.7-2.7-0.7-4.2c0-7.5,6.1-13.6,13.6-13.6
		c1.8,0,3.6,0.4,5.3,1.1c0,0,0.1,0,0.1,0c2.8,1.2,5.1,3.3,6.6,6c1.1,2,1.6,4.2,1.6,6.5C54,50.3,47.9,56.4,40.4,56.4z"/>
	<path class="st1" d="M37.9,38.8h6.9c1.1,0,2-0.9,2-2s-0.9-2-2-2h-1.6v-2c0-1.1-0.9-2-2-2s-2,0.9-2,2v2h-1.3c-2.6,0-4.7,2.1-4.7,4.7
		v0.3c0,2.6,2.1,4.7,4.7,4.7h4.1c0.4,0,0.7,0.3,0.7,0.7c0,0.4-0.3,0.7-0.7,0.7h-6.5c-1.1,0-2,0.9-2,2s0.9,2,2,2h3.7v2
		c0,1.1,0.9,2,2,2s2-0.9,2-2v-2.2c2.1-0.5,3.6-2.4,3.6-4.6c0-2.6-2.1-4.7-4.7-4.7h-4.1c-0.4,0-0.7-0.3-0.7-0.7v-0.3
		C37.2,39.1,37.5,38.8,37.9,38.8z"/>
	<path class="st1" d="M70.3,34.3c-1.2-0.6-2.6-0.2-3.3,0.9L50.4,65.5c0,0,0,0,0,0l-1.3,2.4l4.3,2.4l2.2-4.1l0,0l15.8-28.7
		C71.9,36.3,71.5,34.9,70.3,34.3z"/>
	<path class="st1" d="M48.1,73.4c0,0.2,0,0.3,0.1,0.5c0.2,0.4,0.7,0.5,1.1,0.2l3.1-2.1l-4.2-2.4L48.1,73.4z"/>
</g>
</svg>
