<?xml version="1.0" encoding="utf-8"?>
<!-- Generator: Adobe Illustrator 24.3.0, SVG Export Plug-In . SVG Version: 6.00 Build 0)  -->
<svg version="1.1" id="Layer_1" xmlns="http://www.w3.org/2000/svg" xmlns:xlink="http://www.w3.org/1999/xlink" x="0px" y="0px"
	 viewBox="0 0 89 89" style="enable-background:new 0 0 89 89;" xml:space="preserve">
<style type="text/css">
	.st0{fill-rule:evenodd;clip-rule:evenodd;fill:url(#Rectangle_1_);}
	.st1{fill:#FAFAFA;}
</style>
<desc>Created with Sketch.</desc>
<linearGradient id="Rectangle_1_" gradientUnits="userSpaceOnUse" x1="-250.1509" y1="461.1555" x2="-249.1509" y2="461.1555" gradientTransform="matrix(88.8 0 0 -88.8 22213.4004 40995.0117)">
	<stop  offset="0" style="stop-color:#F8CD3F"/>
	<stop  offset="1" style="stop-color:#FCDF52"/>
</linearGradient>
<path id="Rectangle" class="st0" d="M13.6,0h61.6c7.5,0,13.6,6.1,13.6,13.6v61.6c0,7.5-6.1,13.6-13.6,13.6H13.6
	C6.1,88.8,0,82.7,0,75.2V13.6C0,6.1,6.1,0,13.6,0z"/>
<g>
	<path class="st1" d="M38.8,66.8H24.4c-1.7,0-3.2-1.4-3.2-3.2V24.4c0-1.8,1.4-3.2,3.2-3.2H54c1.7,0,3.2,1.4,3.2,3.2v7.8
		c0,1.1,0.9,2,2,2s2-0.9,2-2v-7.8c0-4-3.2-7.2-7.2-7.2H24.4c-4,0-7.2,3.2-7.2,7.2v39.2c0,4,3.2,7.2,7.2,7.2h14.4c1.1,0,2-0.9,2-2
		S39.9,66.8,38.8,66.8z"/>
	<path class="st1" d="M65.2,36.5c-1.2-0.6-2.6-0.2-3.3,0.9L45.3,67.7c0,0,0,0,0,0l-1.3,2.4l4.3,2.4l2.2-4.1l0,0l15.8-28.7
		C66.7,38.6,66.3,37.1,65.2,36.5z"/>
	<path class="st1" d="M42.9,75.6c0,0.2,0,0.3,0.1,0.5c0.2,0.4,0.7,0.5,1.1,0.2l3.1-2.1L43,71.8L42.9,75.6z"/>
	<path class="st1" d="M30.4,34.1c-0.2-1.3-1.4-2.3-2.7-2.1c-1.3,0.2-2.3,1.4-2.1,2.7c0.2,1.3,1.4,2.3,2.7,2.1
		C29.6,36.6,30.5,35.4,30.4,34.1z"/>
	<path class="st1" d="M27.7,45.6c-1.3,0.2-2.3,1.4-2.1,2.7c0.2,1.3,1.4,2.3,2.7,2.1c1.3-0.2,2.3-1.4,2.1-2.7S29,45.5,27.7,45.6z"/>
	<path class="st1" d="M30.4,40.5c-0.2-1.3-1.4-2.3-2.7-2.1c-1.3,0.2-2.3,1.4-2.1,2.7c0.2,1.3,1.4,2.3,2.7,2.1
		C29.6,43,30.5,41.8,30.4,40.5z"/>
	<path class="st1" d="M33.6,36.7h17.6c1,0,1.9-0.9,1.9-1.9s-0.9-1.9-1.9-1.9H33.6c-1,0-1.9,0.9-1.9,1.9S32.6,36.7,33.6,36.7z"/>
	<path class="st1" d="M33.6,46.4c-1.1,0-2,0.9-2,2s0.9,2,2,2h15.2c1.1,0,2-0.9,2-2s-0.9-2-2-2H33.6z"/>
	<path class="st1" d="M53.2,41.2c0-1.1-0.9-2-2-2H33.6c-1.1,0-2,0.9-2,2s0.9,2,2,2h17.6C52.3,43.2,53.2,42.3,53.2,41.2z"/>
</g>
</svg>
