<?xml version="1.0" encoding="utf-8"?>
<!-- Generator: Adobe Illustrator 24.3.0, SVG Export Plug-In . SVG Version: 6.00 Build 0)  -->
<svg version="1.1" id="Layer_1" xmlns="http://www.w3.org/2000/svg" xmlns:xlink="http://www.w3.org/1999/xlink" x="0px" y="0px"
	 viewBox="0 0 89 89" style="enable-background:new 0 0 89 89;" xml:space="preserve">
<style type="text/css">
	.st0{fill-rule:evenodd;clip-rule:evenodd;fill:url(#Rectangle_1_);}
	.st1{fill:#FAFAFA;}
</style>
<desc>Created with Sketch.</desc>
<linearGradient id="Rectangle_1_" gradientUnits="userSpaceOnUse" x1="-250.0946" y1="461.1555" x2="-249.1509" y2="461.1555" gradientTransform="matrix(88.8 0 0 -88.8 22213.4004 40995.0117)">
	<stop  offset="0" style="stop-color:#F8CD3F"/>
	<stop  offset="1" style="stop-color:#FBDE51"/>
</linearGradient>
<path id="Rectangle" class="st0" d="M13.6,0h61.6c7.5,0,13.6,6.1,13.6,13.6v61.6c0,7.5-6.1,13.6-13.6,13.6H13.6
	C6.1,88.8,0,82.7,0,75.2V13.6C0,6.1,6.1,0,13.6,0z"/>
<g>
	<path class="st1" d="M59.6,12.4C49.9,12.4,42,20.3,42,30s7.9,17.6,17.6,17.6c9.7,0,17.6-7.9,17.6-17.6S69.3,12.4,59.6,12.4z
		 M59.6,43.6C52.1,43.6,46,37.5,46,30s6.1-13.6,13.6-13.6S73.2,22.5,73.2,30S67.1,43.6,59.6,43.6z"/>
	<path class="st1" d="M59.2,51.8c-1.1,0-2,0.9-2,2v9.9c0,1.8-1.4,3.2-3.2,3.2H24.4c-1.7,0-3.2-1.4-3.2-3.2V24.4
		c0-1.8,1.4-3.2,3.2-3.2H38c1.1,0,2-0.9,2-2s-0.9-2-2-2H24.4c-4,0-7.2,3.2-7.2,7.2v39.2c0,4,3.2,7.2,7.2,7.2H54c4,0,7.2-3.2,7.2-7.2
		v-9.9C61.2,52.7,60.3,51.8,59.2,51.8z"/>
	<path class="st1" d="M36.8,39v14.5l-2.1-2c-1-0.9-2.5-0.9-3.4,0.1c-0.9,1-0.9,2.5,0.1,3.4l7.7,7.3l8.2-7.2c1-0.9,1.1-2.4,0.2-3.4
		c-0.9-1-2.4-1.1-3.4-0.2l-2.6,2.3V39c0-1.3-1.1-2.4-2.4-2.4S36.8,37.7,36.8,39z"/>
	<path class="st1" d="M67.1,27.6H62v-5.1c0-1.3-1.1-2.4-2.4-2.4s-2.4,1.1-2.4,2.4v9.9h9.9c1.3,0,2.4-1.1,2.4-2.4
		S68.5,27.6,67.1,27.6z"/>
</g>
</svg>
