<?xml version="1.0" encoding="utf-8"?>
<!-- Generator: Adobe Illustrator 24.3.0, SVG Export Plug-In . SVG Version: 6.00 Build 0)  -->
<svg version="1.1" id="Layer_1" xmlns="http://www.w3.org/2000/svg" xmlns:xlink="http://www.w3.org/1999/xlink" x="0px" y="0px"
	 viewBox="0 0 89 89" style="enable-background:new 0 0 89 89;" xml:space="preserve">
<style type="text/css">
	.st0{fill-rule:evenodd;clip-rule:evenodd;fill:url(#Rectangle_1_);}
	.st1{fill:#FAFAFA;}
</style>
<desc>Created with Sketch.</desc>
<linearGradient id="Rectangle_1_" gradientUnits="userSpaceOnUse" x1="-249.1509" y1="461.1555" x2="-250.1509" y2="461.1555" gradientTransform="matrix(88.8 0 0 -88.8 22213.4004 40995.0117)">
	<stop  offset="0" style="stop-color:#FCDF52"/>
	<stop  offset="1" style="stop-color:#F8CD3F"/>
</linearGradient>
<path id="Rectangle" class="st0" d="M13.6,0h61.6c7.5,0,13.6,6.1,13.6,13.6v61.6c0,7.5-6.1,13.6-13.6,13.6H13.6
	C6.1,88.8,0,82.7,0,75.2V13.6C0,6.1,6.1,0,13.6,0z"/>
<g>
	<path class="st1" d="M38.8,66.8H24.4c-1.7,0-3.2-1.4-3.2-3.2V24.4c0-1.8,1.4-3.2,3.2-3.2H54c1.7,0,3.2,1.4,3.2,3.2V35
		c0,1.1,0.9,2,2,2s2-0.9,2-2V24.4c0-4-3.2-7.2-7.2-7.2H24.4c-4,0-7.2,3.2-7.2,7.2v39.2c0,4,3.2,7.2,7.2,7.2h14.4c1.1,0,2-0.9,2-2
		S39.9,66.8,38.8,66.8z"/>
	<path class="st1" d="M30.4,35.9H48c1,0,1.9-0.9,1.9-1.9S49,32.1,48,32.1H30.4c-1,0-1.9,0.9-1.9,1.9S29.4,35.9,30.4,35.9z"/>
	<path class="st1" d="M30.4,42.4H48c1.1,0,2-0.9,2-2s-0.9-2-2-2H30.4c-1.1,0-2,0.9-2,2S29.3,42.4,30.4,42.4z"/>
	<path class="st1" d="M77.9,44.7c-1-0.9-2.5-0.9-3.4,0.1l-2,2.1c-3.2-3.5-7.8-5.7-12.9-5.7c-4.9,0-9.3,2-12.4,5.2
		c-0.4-0.5-0.9-0.8-1.6-0.8H30.4c-1.1,0-2,0.9-2,2s0.9,2,2,2h14.2C43,52.3,42,55.4,42,58.8c0,9.7,7.9,17.6,17.6,17.6
		c9.7,0,17.6-7.9,17.6-17.6c0-2.8-0.7-5.5-1.9-7.9L78,48C78.9,47.1,78.9,45.6,77.9,44.7z M73.2,58.8c0,7.5-6.1,13.6-13.6,13.6
		S46,66.3,46,58.8s6.1-13.6,13.6-13.6c4,0,7.7,1.8,10.2,4.6l-10,10.6l-4.7-6c-0.8-1-2.3-1.2-3.4-0.4c-1,0.8-1.2,2.3-0.4,3.4l6.4,8.2
		c0.4,0.6,1.1,0.9,1.8,0.9c0,0,0.1,0,0.1,0c0.7,0,1.3-0.3,1.7-0.8l11-11.6C72.9,55.5,73.2,57.1,73.2,58.8z"/>
</g>
</svg>
